PathFileType	4	(X/Y/Z)	/Users/itak/Documents/Research/Walk-IL/dataset/trc/00153_00007.trc
DataRate	CameraRate	NumFrames	NumMarkers	Units	OrigDataRate	OrigDataStartFrame	OrigNumFrames
100.000000	100.000000	4	53	mm	100.000000	459	525
Frame#	Time	RPSI			LPSI			L3			STRN			T10			C7			CLAV			RBAK			LBAK			LSHO			LUPA			LAEL			LAOL			LWTS			LWPS			LFRA			LIFD			LHPS			LHTS			RSHO			RUPA			RAEL			RAOL			RWTS			RWPS			RFRA			RIFD			RHTS			RHPS			RBHD			LFHD			RFHD			LBHD			LHIP			RHIP			RASI			LASI			LKNE			LTHI			LANK			LTIP			LTOE			LMT1			LMT5			LHEE			RKNE			RTHI			RANK			RTIP			RTOE			RMT1			RMT5			RHEE			
		X1	Y1	Z1	X2	Y2	Z2	X3	Y3	Z3	X4	Y4	Z4	X5	Y5	Z5	X6	Y6	Z6	X7	Y7	Z7	X8	Y8	Z8	X9	Y9	Z9	X10	Y10	Z10	X11	Y11	Z11	X12	Y12	Z12	X13	Y13	Z13	X14	Y14	Z14	X15	Y15	Z15	X16	Y16	Z16	X17	Y17	Z17	X18	Y18	Z18	X19	Y19	Z19	X20	Y20	Z20	X21	Y21	Z21	X22	Y22	Z22	X23	Y23	Z23	X24	Y24	Z24	X25	Y25	Z25	X26	Y26	Z26	X27	Y27	Z27	X28	Y28	Z28	X29	Y29	Z29	X30	Y30	Z30	X31	Y31	Z31	X32	Y32	Z32	X33	Y33	Z33	X34	Y34	Z34	X35	Y35	Z35	X36	Y36	Z36	X37	Y37	Z37	X38	Y38	Z38	X39	Y39	Z39	X40	Y40	Z40	X41	Y41	Z41	X42	Y42	Z42	X43	Y43	Z43	X44	Y44	Z44	X45	Y45	Z45	X46	Y46	Z46	X47	Y47	Z47	X48	Y48	Z48	X49	Y49	Z49	X50	Y50	Z50	X51	Y51	Z51	X52	Y52	Z52	X53	Y53	Z53	

460	4.59	399.6717224121094	1118.873779296875	409.7896423339844	534.9111328125	1123.805053710938	403.2976379394531	469.9351501464844	1154.697387695312	397.868408203125	480.6600036621094	1364.777709960938	603.9346313476562	471.1625061035156	1302.43115234375	349.6424255371094	489.8289184570312	1596.356811523438	370.3927612304688	484.10400390625	1496.223388671875	558.354736328125	398.4991760253906	1409.500244140625	326.1839294433594	591.1551513671875	1574.460815429688	362.7302856445312	659.8018798828125	1563.563598632812	448.2931823730469	728.0745849609375	1430.61767578125	441.1101379394531	749.5079956054688	1215.6513671875	493.531982421875	693.602294921875	1191.396118164062	429.1417236328125	699.11572265625	984.2730102539062	642.7761840820312	727.3787841796875	941.3648071289062	569.5951538085938	750.9251098632812	1104.290161132812	532.557373046875	673.1834716796875	800.7655029296875	696.8468627929688	724.907958984375	874.585205078125	614.4505615234375	707.17138671875	901.0282592773438	676.27001953125	308.587646484375	1581.213134765625	430.5806274414062	244.5883941650391	1507.196533203125	417.4457397460938	221.6125946044922	1212.709594726562	421.9802551269531	317.8600463867188	1210.764038085938	411.7970886230469	243.1129760742188	974.890380859375	574.9469604492188	205.2112884521484	956.2031860351562	501.747802734375	206.0705261230469	1140.759765625	449.2489318847656	261.3641662597656	780.9688720703125	601.475830078125	238.6717529296875	867.08203125	606.3069458007812	204.4647216796875	856.9075317382812	541.7041625976562	414.3712463378906	1779.838256835938	427.5476379394531	561.7990112304688	1828.500732421875	584.560546875	433.9822692871094	1838.96142578125	595.8225708007812	548.5408325195312	1774.4921875	409.1184692382812	647.793212890625	1039.330200195312	494.5904235839844	291.7938537597656	1030.9462890625	551.1232299804688	348.0806884765625	1107.454345703125	622.1703491210938	613.6632690429688	1107.711303710938	602.8242797851562	605.8377685546875	539.1414184570312	518.70849609375	636.9187622070312	684.457763671875	498.5313720703125	574.3701171875	36.39443588256836	417.7549743652344	620.699462890625	290.5203247070312	422.5333557128906	502.0643920898438	35.86949920654297	648.4824829101562	477.5289916992188	47.31441879272461	562.8812866210938	596.438232421875	33.72162246704102	543.1103515625	516.4058227539062	39.56270980834961	346.0313110351562	339.3529663085938	537.1503295898438	595.347900390625	306.390625	819.1875	589.9695434570312	328.6455078125	32.40880966186523	447.4975891113281	322.0731811523438	403.3290405273438	559.7473754882812	399.4685363769531	44.35783386230469	675.2523193359375	437.0485229492188	36.88596343994141	612.2539672851562	317.0543212890625	41.21430206298828	583.7156982421875	372.8890075683594	32.63077545166016	386.7200012207031	
461	4.600000000000001	399.6299438476562	1119.7890625	411.5964660644531	534.859375	1124.2021484375	405.0596008300781	469.8351440429688	1155.16455078125	399.7569274902344	480.5835876464844	1365.189697265625	605.5236206054688	470.8502807617188	1302.505859375	351.4837951660156	489.0998229980469	1596.504760742188	371.5365600585938	483.8765258789062	1496.572998046875	559.6989135742188	397.7709045410156	1409.571655273438	327.9159851074219	590.4151000976562	1574.616088867188	363.6898803710938	659.3436889648438	1563.820556640625	449.0839538574219	727.4693603515625	1430.740844726562	441.3952941894531	748.5172119140625	1215.386962890625	492.3760070800781	692.0532836914062	1191.797607421875	428.2215881347656	698.9569091796875	982.0803833007812	639.0333862304688	726.546142578125	940.212646484375	565.0115356445312	750.03857421875	1103.604614257812	530.1224975585938	673.0359497070312	797.7695922851562	690.4990234375	724.2972412109375	872.7640991210938	608.87548828125	707.061767578125	898.2901611328125	671.2168579101562	308.0676879882812	1581.461303710938	432.1226806640625	243.9644165039062	1507.42822265625	419.3030090332031	220.7642822265625	1213	424.5824279785156	316.9594116210938	1210.9248046875	414.08349609375	242.5205688476562	975.0518188476562	577.3207397460938	204.32421875	956.5205078125	504.1991577148438	205.2561492919922	1141.109130859375	451.9137268066406	260.607421875	781.0199584960938	603.3804931640625	238.0685119628906	867.1482543945312	608.5211181640625	203.5846557617188	857.1712036132812	544.0166015625	413.8485107421875	1780.18994140625	428.4110107421875	561.6844482421875	1828.999877929688	584.9638061523438	433.7936096191406	1839.687255859375	596.4965209960938	547.9281616210938	1774.738891601562	409.6411743164062	647.4365234375	1039.302001953125	496.1909484863281	291.4523010253906	1031.855834960938	552.675537109375	347.8467102050781	1108.045166015625	624.007080078125	613.3551025390625	1107.845825195312	604.5034790039062	605.3331909179688	539.1744995117188	519.7984619140625	636.434814453125	684.4796142578125	499.7639770507812	574.2259521484375	36.5558967590332	417.7395629882812	620.281005859375	290.8249206542969	422.9500427246094	502.1297607421875	35.86060333251953	648.5070190429688	477.5117797851562	47.34315490722656	562.9602661132812	596.3953247070312	33.76692962646484	543.1061401367188	516.140380859375	39.72856521606445	346.0892639160156	337.8394165039062	537.6268920898438	592.271728515625	305.8870849609375	820.2935791015625	590.2435302734375	328.5006103515625	32.17436599731445	447.4349670410156	320.90576171875	403.8159484863281	557.272216796875	399.4782104492188	44.39970397949219	675.1976928710938	437.0103759765625	36.95260238647461	612.2257080078125	316.9646606445312	41.19257736206055	583.6935424804688	372.7789001464844	32.34226226806641	386.6962280273438	
462	4.61	399.5670471191406	1120.715209960938	413.3119812011719	534.7853393554688	1124.6044921875	406.7173156738281	469.7313537597656	1155.669189453125	401.5345764160156	480.505126953125	1365.604125976562	607.046630859375	470.5871276855469	1302.625610351562	353.2205505371094	488.4075012207031	1596.687377929688	372.6840209960938	483.6354675292969	1496.94189453125	561.020751953125	397.1243896484375	1409.677490234375	329.5946044921875	589.7109985351562	1574.8369140625	364.6788330078125	658.8980712890625	1564.15185546875	449.9300231933594	726.915771484375	1430.968627929688	441.7445373535156	747.55859375	1215.224243164062	491.2181091308594	690.5821533203125	1192.31689453125	427.2904052734375	698.8375244140625	979.9400024414062	635.1469116210938	725.792724609375	939.176513671875	560.2904663085938	749.2076416015625	1103.02783203125	527.6408081054688	672.9284057617188	794.8247680664062	683.8577270507812	723.7456665039062	871.044189453125	603.1039428710938	706.9824829101562	895.5960693359375	665.9608764648438	307.5925598144531	1581.712280273438	433.6056213378906	243.3767395019531	1507.661254882812	421.0736694335938	219.9291839599609	1213.295043945312	427.0550842285156	316.0737915039062	1211.088745117188	416.2643127441406	241.8993988037109	975.3169555664062	579.7222290039062	203.4382629394531	956.8798217773438	506.6940612792969	204.4516754150391	1141.46435546875	454.464599609375	259.834716796875	781.2118530273438	605.515869140625	237.4358367919922	867.3596801757812	610.8742065429688	202.7152099609375	857.5140380859375	546.4578857421875	413.3072204589844	1780.544799804688	429.2492980957031	561.5343627929688	1829.524291992188	585.3388671875	433.5772399902344	1840.403442382812	597.1362915039062	547.3036499023438	1775.004516601562	410.1386413574219	647.0645751953125	1039.295654296875	497.6355895996094	291.0978393554688	1032.770263671875	554.1614990234375	347.61328125	1108.65771484375	625.7459716796875	613.06787109375	1108.015502929688	606.0826416015625	604.8150634765625	539.1966552734375	520.9476928710938	635.9307861328125	684.49267578125	501.0122375488281	574.035400390625	36.72676467895508	417.7355346679688	619.8104248046875	291.1246643066406	423.4295654296875	502.2003784179688	35.84496688842773	648.5576171875	477.4845275878906	47.35500717163086	563.0623168945312	596.3387451171875	33.82197189331055	543.103515625	515.8268432617188	39.87267684936523	346.1640319824219	336.24560546875	538.1732177734375	589.1961059570312	305.3898010253906	821.4503173828125	590.486572265625	328.3686218261719	32.01514434814453	447.3956604003906	319.6555786132812	404.3824462890625	554.744140625	399.4593505859375	44.4361457824707	675.15576171875	436.9537658691406	37.02699279785156	612.1954956054688	316.8768920898438	41.17554092407227	583.69189453125	372.6844482421875	32.15710067749023	386.6894836425781	
463	4.62	399.4621276855469	1121.612182617188	414.9450378417969	534.6660766601562	1124.9912109375	408.27099609375	469.6022338867188	1156.183715820312	403.2063293457031	480.4242553710938	1365.997680664062	608.5029296875	470.3499755859375	1302.774780273438	354.8406066894531	487.7571105957031	1596.88720703125	373.8362426757812	483.3875732421875	1497.306518554688	562.3201293945312	396.5545654296875	1409.800170898438	331.2189025878906	589.0479736328125	1575.101440429688	365.697509765625	658.46923828125	1564.532592773438	450.8302001953125	726.419677734375	1431.274658203125	442.1551818847656	746.64013671875	1215.141967773438	490.0641174316406	689.2066650390625	1192.92919921875	426.3464050292969	698.7398681640625	977.8507690429688	631.1407470703125	725.122314453125	938.2457885742188	555.4674072265625	748.4349975585938	1102.543212890625	525.1290283203125	672.8538208007812	791.9415893554688	676.9708862304688	723.2554321289062	869.4249877929688	597.1802368164062	706.9266357421875	892.953857421875	660.5389404296875	307.1569519042969	1581.944702148438	435.0370178222656	242.8295593261719	1507.879760742188	422.7621459960938	219.1151275634766	1213.577514648438	429.3855285644531	315.2110900878906	1211.243774414062	418.3294067382812	241.2554931640625	975.674072265625	582.1515502929688	202.5594177246094	957.2637329101562	509.2310180664062	203.6567535400391	1141.810913085938	456.8919067382812	259.0541381835938	781.5339965820312	607.9011840820312	236.7798156738281	867.7070922851562	613.3700561523438	201.8648376464844	857.9163208007812	549.0325927734375	412.7464599609375	1780.874389648438	430.0592651367188	561.343505859375	1830.056640625	585.6893310546875	433.3376159667969	1841.07861328125	597.7489624023438	546.6715698242188	1775.265625	410.6155395507812	646.6865844726562	1039.326904296875	498.9396667480469	290.7373352050781	1033.645263671875	555.6045532226562	347.3883666992188	1109.256958007812	627.3987426757812	612.8153076171875	1108.193969726562	607.5577392578125	604.2880859375	539.20263671875	522.1428833007812	635.3989868164062	684.4917602539062	502.2762451171875	573.7922973632812	36.9052848815918	417.7473449707031	619.2988891601562	291.3965454101562	423.9617919921875	502.2740478515625	35.82071304321289	648.6392822265625	477.4437255859375	47.34553146362305	563.1902465820312	596.2650146484375	33.88628768920898	543.1032104492188	515.4674682617188	39.99141693115234	346.2568969726562	334.5946655273438	538.7376708984375	586.1090087890625	304.8377075195312	822.528564453125	590.6239624023438	328.2427978515625	31.8950023651123	447.369873046875	318.3478698730469	404.9830017089844	552.1611938476562	399.418701171875	44.47259521484375	675.1099853515625	436.8746337890625	37.09837341308594	612.1464233398438	316.7926940917969	41.16417694091797	583.6986694335938	372.5985717773438	32.02927398681641	386.6826171875	
